<?xml version="1.0" encoding="UTF-8" standalone="no"?>
<!DOCTYPE svg PUBLIC "-//W3C//DTD SVG 1.1//EN"
 "http://www.w3.org/Graphics/SVG/1.1/DTD/svg11.dtd">
<!-- Generated by graphviz version 2.47.0 (20210316.0004)
 -->
<!-- Title: dbml Pages: 1 -->
<svg width="924pt" height="438pt"
 viewBox="0.00 0.00 923.64 437.92" xmlns="http://www.w3.org/2000/svg" xmlns:xlink="http://www.w3.org/1999/xlink">
<g id="graph0" class="graph" transform="scale(1 1) rotate(0) translate(4 433.92)">
<title>dbml</title>
<!-- users -->
<g id="users" class="node">
<title>users</title>
<ellipse fill="none" stroke="black" stroke-width="0" cx="661.79" cy="-244.96" rx="253.7" ry="172.57"/>
<polygon fill="#1d71b8" stroke="transparent" points="484.79,-304.96 484.79,-364.96 839.79,-364.96 839.79,-304.96 484.79,-304.96"/>
<polygon fill="none" stroke="#29235c" points="484.79,-304.96 484.79,-364.96 839.79,-364.96 839.79,-304.96 484.79,-304.96"/>
<text text-anchor="start" x="560.92" y="-326.16" font-family="Helvetica,sans-Serif" font-weight="bold" font-size="32.00" fill="#ffffff"> &#160;&#160;&#160;&#160;&#160;&#160;users &#160;&#160;&#160;&#160;&#160;&#160;</text>
<polygon fill="#e7e2dd" stroke="transparent" points="484.79,-244.96 484.79,-304.96 839.79,-304.96 839.79,-244.96 484.79,-244.96"/>
<polygon fill="none" stroke="#29235c" points="484.79,-244.96 484.79,-304.96 839.79,-304.96 839.79,-244.96 484.79,-244.96"/>
<text text-anchor="start" x="495.79" y="-265.16" font-family="Helvetica,sans-Serif" font-size="32.00" fill="#29235c">id &#160;&#160;&#160;</text>
<text text-anchor="start" x="730.99" y="-266.16" font-family="Helvetica,sans-Serif" font-style="italic" font-size="32.00" fill="#29235c">integer</text>
<polygon fill="#e7e2dd" stroke="transparent" points="484.79,-184.96 484.79,-244.96 839.79,-244.96 839.79,-184.96 484.79,-184.96"/>
<polygon fill="none" stroke="#29235c" points="484.79,-184.96 484.79,-244.96 839.79,-244.96 839.79,-184.96 484.79,-184.96"/>
<text text-anchor="start" x="495.79" y="-205.16" font-family="Helvetica,sans-Serif" font-size="32.00" fill="#29235c">username &#160;&#160;&#160;</text>
<text text-anchor="start" x="722.12" y="-206.16" font-family="Helvetica,sans-Serif" font-style="italic" font-size="32.00" fill="#29235c">varchar</text>
<polygon fill="#e7e2dd" stroke="transparent" points="484.79,-124.96 484.79,-184.96 839.79,-184.96 839.79,-124.96 484.79,-124.96"/>
<polygon fill="none" stroke="#29235c" points="484.79,-124.96 484.79,-184.96 839.79,-184.96 839.79,-124.96 484.79,-124.96"/>
<text text-anchor="start" x="495.42" y="-145.16" font-family="Helvetica,sans-Serif" font-size="32.00" fill="#29235c">created_at &#160;&#160;&#160;</text>
<text text-anchor="start" x="681.51" y="-146.16" font-family="Helvetica,sans-Serif" font-style="italic" font-size="32.00" fill="#29235c">timestamp</text>
<polygon fill="none" stroke="#29235c" stroke-width="2" points="483.29,-123.96 483.29,-365.96 840.29,-365.96 840.29,-123.96 483.29,-123.96"/>
</g>
<!-- posts -->
<g id="posts" class="node">
<title>posts</title>
<ellipse fill="none" stroke="black" stroke-width="0" cx="185.97" cy="-214.96" rx="185.94" ry="214.92"/>
<polygon fill="#1d71b8" stroke="transparent" points="56.97,-304.96 56.97,-364.96 315.97,-364.96 315.97,-304.96 56.97,-304.96"/>
<polygon fill="none" stroke="#29235c" points="56.97,-304.96 56.97,-364.96 315.97,-364.96 315.97,-304.96 56.97,-304.96"/>
<text text-anchor="start" x="85.98" y="-326.16" font-family="Helvetica,sans-Serif" font-weight="bold" font-size="32.00" fill="#ffffff"> &#160;&#160;&#160;&#160;&#160;&#160;posts &#160;&#160;&#160;&#160;&#160;&#160;</text>
<polygon fill="#e7e2dd" stroke="transparent" points="56.97,-244.96 56.97,-304.96 315.97,-304.96 315.97,-244.96 56.97,-244.96"/>
<polygon fill="none" stroke="#29235c" points="56.97,-244.96 56.97,-304.96 315.97,-304.96 315.97,-244.96 56.97,-244.96"/>
<text text-anchor="start" x="67.97" y="-266.16" font-family="Helvetica,sans-Serif" font-weight="bold" font-size="32.00" fill="#29235c">id</text>
<text text-anchor="start" x="92.86" y="-266.16" font-family="Helvetica,sans-Serif" font-size="32.00" fill="#29235c"> &#160;&#160;&#160;</text>
<text text-anchor="start" x="207.17" y="-266.16" font-family="Helvetica,sans-Serif" font-style="italic" font-size="32.00" fill="#29235c">integer</text>
<polygon fill="#e7e2dd" stroke="transparent" points="56.97,-184.96 56.97,-244.96 315.97,-244.96 315.97,-184.96 56.97,-184.96"/>
<polygon fill="none" stroke="#29235c" points="56.97,-184.96 56.97,-244.96 315.97,-244.96 315.97,-184.96 56.97,-184.96"/>
<text text-anchor="start" x="67.97" y="-205.16" font-family="Helvetica,sans-Serif" font-size="32.00" fill="#29235c">title &#160;&#160;&#160;</text>
<text text-anchor="start" x="198.3" y="-206.16" font-family="Helvetica,sans-Serif" font-style="italic" font-size="32.00" fill="#29235c">varchar</text>
<polygon fill="#e7e2dd" stroke="transparent" points="56.97,-124.96 56.97,-184.96 315.97,-184.96 315.97,-124.96 56.97,-124.96"/>
<polygon fill="none" stroke="#29235c" points="56.97,-124.96 56.97,-184.96 315.97,-184.96 315.97,-124.96 56.97,-124.96"/>
<text text-anchor="start" x="67.97" y="-145.16" font-family="Helvetica,sans-Serif" font-size="32.00" fill="#29235c">body &#160;&#160;&#160;</text>
<text text-anchor="start" x="253.39" y="-146.16" font-family="Helvetica,sans-Serif" font-style="italic" font-size="32.00" fill="#29235c">text</text>
<polygon fill="#e7e2dd" stroke="transparent" points="56.97,-64.96 56.97,-124.96 315.97,-124.96 315.97,-64.96 56.97,-64.96"/>
<polygon fill="none" stroke="#29235c" points="56.97,-64.96 56.97,-124.96 315.97,-124.96 315.97,-64.96 56.97,-64.96"/>
<text text-anchor="start" x="67.73" y="-85.16" font-family="Helvetica,sans-Serif" font-size="32.00" fill="#29235c">user_id &#160;&#160;&#160;</text>
<text text-anchor="start" x="207.57" y="-86.16" font-family="Helvetica,sans-Serif" font-style="italic" font-size="32.00" fill="#29235c">integer</text>
<polygon fill="none" stroke="#29235c" stroke-width="2" points="55.47,-63.96 55.47,-365.96 316.47,-365.96 316.47,-63.96 55.47,-63.96"/>
</g>
<!-- posts&#45;&gt;users -->
<!-- posts&#45;&gt;users -->
<g id="edge2" class="edge">
<title>posts:e&#45;&gt;users:w</title>
<path fill="none" stroke="#29235c" stroke-width="3" d="M316.97,-94.96C422.53,-94.96 377.86,-263.55 473.73,-274.41"/>
<polygon fill="#29235c" stroke="#29235c" stroke-width="3" points="473.61,-277.91 483.79,-274.96 474,-270.92 473.61,-277.91"/>
<text text-anchor="middle" x="492.68" y="-246.16" font-family="Helvetica,sans-Serif" font-size="32.00" fill="#29235c">1</text>
<text text-anchor="middle" x="323.19" y="-66.16" font-family="Helvetica,sans-Serif" font-size="32.00" fill="#29235c">*</text>
</g>
</g>
</svg>
